<svg width="920" height="742" viewBox="0 0 920 742" fill="none" xmlns="http://www.w3.org/2000/svg">
<path d="M130.758 704.427C130.758 713.198 172.773 720.307 224.602 720.307C276.43 720.307 318.446 713.198 318.446 704.427C318.446 695.657 276.43 688.546 224.602 688.546C172.773 688.546 130.758 695.657 130.758 704.427Z" fill="#F0F2F7"/>
<path d="M842.627 555.431H170.347C163.621 555.431 158.168 549.279 158.168 541.691V33.3379C158.168 25.7498 163.621 19.5985 170.347 19.5985H842.627C849.353 19.5985 854.806 25.7498 854.806 33.3379V541.691C854.806 549.279 849.353 555.431 842.627 555.431Z" fill="#F0F2F7"/>
<path d="M833.695 19.5985H179.278C167.62 19.5985 158.168 30.2608 158.168 43.4135V531.616C158.168 544.768 167.619 555.431 179.278 555.431H833.695C845.354 555.431 854.806 544.768 854.806 531.616V43.4135C854.806 30.2608 845.355 19.5985 833.695 19.5985ZM852.178 531.616C852.178 543.112 843.887 552.466 833.696 552.466H179.278C169.087 552.466 160.796 543.112 160.796 531.616V43.4135C160.796 31.9165 169.087 22.5633 179.278 22.5633H833.695C843.887 22.5633 852.178 31.9165 852.178 43.4135V531.616H852.178Z" fill="#96E6B3"/>
<path d="M842.627 555.431H170.347C163.621 555.431 158.168 549.28 158.168 541.691V483.986H854.806V541.691C854.806 549.279 849.353 555.431 842.627 555.431Z" fill="#96E6B3"/>
<path d="M605.068 646.137H407.91C406.169 646.137 405.81 642.541 405.81 636.577C406.147 637.268 606.845 637.268 607.183 636.577C607.183 641.847 606.81 646.137 605.068 646.137Z" fill="#96E6B3"/>
<path d="M606.905 637.58C606.568 638.271 605.924 638.782 605.068 638.782H407.91C407.055 638.782 406.411 638.271 406.073 637.58C405.577 636.568 405.704 635.187 406.738 634.413L428.45 618.088C431.078 616.111 432.788 612.907 433.094 609.359L437.875 555.43H575.092L579.873 609.359C580.19 612.907 581.9 616.111 584.528 618.088L606.24 634.413C607.264 635.186 607.401 636.567 606.905 637.58Z" fill="#CDFBDD"/>
<path d="M223.184 142.534H205.527C198.879 142.534 193.49 136.454 193.49 128.954V95.4543H235.223V128.954C235.222 136.454 229.832 142.534 223.184 142.534Z" fill="#4A7856"/>
<path d="M264.917 142.534H247.26C240.612 142.534 235.222 136.454 235.222 128.954V95.4543H276.955V128.954C276.955 136.454 271.566 142.534 264.917 142.534Z" fill="white"/>
<path d="M306.649 142.534H288.993C282.345 142.534 276.955 136.454 276.955 128.954V95.4543H318.688V128.954C318.688 136.454 313.298 142.534 306.649 142.534Z" fill="#4A7856"/>
<path d="M348.383 142.534H330.727C324.079 142.534 318.689 136.454 318.689 128.954V95.4543H360.422V128.954C360.422 136.454 355.031 142.534 348.383 142.534Z" fill="white"/>
<path d="M390.116 142.534H372.46C365.811 142.534 360.421 136.454 360.421 128.954V95.4543H402.154V128.954C402.154 136.454 396.764 142.534 390.116 142.534Z" fill="#4A7856"/>
<path d="M431.849 142.534H414.192C407.544 142.534 402.154 136.454 402.154 128.954V95.4543H443.887V128.954C443.887 136.454 438.497 142.534 431.849 142.534Z" fill="white"/>
<path d="M473.582 142.534H455.925C449.277 142.534 443.887 136.454 443.887 128.954V95.4543H485.62V128.954C485.621 136.454 480.231 142.534 473.582 142.534Z" fill="#4A7856"/>
<path d="M557.048 142.534H539.392C532.743 142.534 527.353 136.454 527.353 128.954V95.4543H569.086V128.954C569.086 136.454 563.697 142.534 557.048 142.534Z" fill="#4A7856"/>
<path d="M515.315 142.534H497.658C491.01 142.534 485.621 136.454 485.621 128.954V95.4543H527.354V128.954C527.354 136.454 521.963 142.534 515.315 142.534Z" fill="white"/>
<path d="M235.222 95.4543H193.489L231.498 38.9397H268.163L235.222 95.4543Z" fill="#4A7856"/>
<path d="M276.955 95.4543H235.222L268.163 38.9397H304.828L276.955 95.4543Z" fill="#F0F2F7"/>
<path d="M139.718 142.534H122.061C115.413 142.534 110.023 136.454 110.023 128.954V95.4543H151.756V128.954C151.756 136.454 146.367 142.534 139.718 142.534Z" fill="#4A7856"/>
<path d="M181.451 142.534H163.795C157.146 142.534 151.757 136.454 151.757 128.954V95.4543H193.489V128.954C193.489 136.454 188.099 142.534 181.451 142.534Z" fill="white"/>
<path d="M151.756 95.4543H110.023L158.168 38.9397H194.833L151.756 95.4543Z" fill="#4A7856"/>
<path d="M193.489 95.4543H151.756L194.833 38.9397H231.498L193.489 95.4543Z" fill="#F0F2F7"/>
<path d="M318.688 95.4543H276.955L304.829 38.9397H341.494L318.688 95.4543Z" fill="#4A7856"/>
<path d="M360.421 95.4543H318.688L341.494 38.9397H378.159L360.421 95.4543Z" fill="#F0F2F7"/>
<path d="M402.154 95.4543H360.421L378.159 38.9397H414.824L402.154 95.4543Z" fill="#4A7856"/>
<path d="M443.887 95.4543H402.154L414.824 38.9397H451.489L443.887 95.4543Z" fill="#F0F2F7"/>
<path d="M485.621 95.4543H443.887L451.489 38.9397H488.154L485.621 95.4543Z" fill="#4A7856"/>
<path d="M569.086 95.4543H527.354L524.819 38.9397H561.485L569.086 95.4543Z" fill="#4A7856"/>
<path d="M527.353 95.4543H485.62L488.154 38.9397H524.819L527.353 95.4543Z" fill="#F0F2F7"/>
<path d="M598.781 142.534H581.124C574.476 142.534 569.087 136.454 569.087 128.954V95.4543H610.819V128.954C610.819 136.454 605.43 142.534 598.781 142.534Z" fill="white"/>
<path d="M640.514 142.534H622.857C616.21 142.534 610.82 136.454 610.82 128.954V95.4543H652.553V128.954C652.552 136.454 647.163 142.534 640.514 142.534Z" fill="#4A7856"/>
<path d="M682.247 142.534H664.59C657.942 142.534 652.553 136.454 652.553 128.954V95.4543H694.285V128.954C694.285 136.454 688.896 142.534 682.247 142.534Z" fill="white"/>
<path d="M723.98 142.534H706.324C699.675 142.534 694.286 136.454 694.286 128.954V95.4543H736.019V128.954C736.019 136.454 730.628 142.534 723.98 142.534Z" fill="#4A7856"/>
<path d="M765.714 142.534H748.057C741.409 142.534 736.019 136.454 736.019 128.954V95.4543H777.752V128.954C777.752 136.454 772.362 142.534 765.714 142.534Z" fill="white"/>
<path d="M807.446 142.534H789.789C783.141 142.534 777.752 136.454 777.752 128.954V95.4543H819.484V128.954C819.484 136.454 814.095 142.534 807.446 142.534Z" fill="#4A7856"/>
<path d="M890.912 142.534H873.256C866.607 142.534 861.218 136.454 861.218 128.954V95.4543H902.95V128.954C902.95 136.454 897.561 142.534 890.912 142.534Z" fill="#4A7856"/>
<path d="M849.18 142.534H831.523C824.874 142.534 819.484 136.454 819.484 128.954V95.4543H861.217V128.954C861.218 136.454 855.828 142.534 849.18 142.534Z" fill="white"/>
<path d="M610.819 95.4543H569.086L561.484 38.9397H598.15L610.819 95.4543Z" fill="#F0F2F7"/>
<path d="M652.553 95.4543H610.819L598.15 38.9397H634.815L652.553 95.4543Z" fill="#4A7856"/>
<path d="M694.286 95.4543H652.553L634.815 38.9397H671.48L694.286 95.4543Z" fill="#F0F2F7"/>
<path d="M736.019 95.4543H694.286L671.48 38.9397H708.145L736.019 95.4543Z" fill="#4A7856"/>
<path d="M777.752 95.4543H736.019L708.145 38.9397H744.81L777.752 95.4543Z" fill="#F0F2F7"/>
<path d="M819.484 95.4543H777.752L744.81 38.9397H781.475L819.484 95.4543Z" fill="#4A7856"/>
<path d="M902.951 95.4543H861.218L818.14 38.9397H854.806L902.951 95.4543Z" fill="#4A7856"/>
<path d="M861.218 95.4543H819.484L781.475 38.9397H818.141L861.218 95.4543Z" fill="#F0F2F7"/>
<path d="M435.714 245.085H343.132V161.397C343.132 159.548 344.461 158.049 346.1 158.049H432.747C434.386 158.049 435.714 159.548 435.714 161.397V245.085H435.714Z" fill="#CDFBDD"/>
<path d="M432.747 303.11H346.1C344.461 303.11 343.133 301.611 343.133 299.762V245.085H435.714V299.762C435.714 301.611 434.386 303.11 432.747 303.11Z" fill="white"/>
<path d="M426.515 259.591H352.331C351.512 259.591 350.847 258.842 350.847 257.918V255.462C350.847 254.538 351.512 253.789 352.331 253.789H426.515C427.335 253.789 427.999 254.538 427.999 255.462V257.918C427.999 258.842 427.335 259.591 426.515 259.591Z" fill="#7DBD8D"/>
<path d="M411.085 271.196H352.331C351.512 271.196 350.847 270.447 350.847 269.522V267.067C350.847 266.143 351.511 265.394 352.331 265.394H411.085C411.904 265.394 412.569 266.143 412.569 267.067V269.522C412.569 270.447 411.904 271.196 411.085 271.196Z" fill="#CDFBDD"/>
<path d="M390.511 282.801H352.331C351.512 282.801 350.847 282.052 350.847 281.127V278.672C350.847 277.748 351.511 276.999 352.331 276.999H390.511C391.331 276.999 391.995 277.748 391.995 278.672V281.127C391.995 282.052 391.331 282.801 390.511 282.801Z" fill="#D2D2D2"/>
<path d="M354.379 288.748L355.252 290.658L357.208 290.965L355.793 292.452L356.127 294.551L354.379 293.56L352.631 294.551L352.965 292.452L351.549 290.965L353.505 290.658L354.379 288.748Z" fill="#FCBF49"/>
<path d="M363.894 288.748L364.769 290.658L366.723 290.965L365.309 292.452L365.642 294.551L363.894 293.56L362.146 294.551L362.48 292.452L361.065 290.965L363.02 290.658L363.894 288.748Z" fill="#FCBF49"/>
<path d="M373.409 288.748L374.284 290.658L376.239 290.965L374.825 292.452L375.158 294.551L373.409 293.56L371.661 294.551L371.995 292.452L370.581 290.965L372.536 290.658L373.409 288.748Z" fill="#FCBF49"/>
<path d="M382.925 288.748L383.799 290.658L385.754 290.965L384.34 292.452L384.673 294.551L382.925 293.56L381.177 294.551L381.511 292.452L380.097 290.965L382.051 290.658L382.925 288.748Z" fill="#FCBF49"/>
<path d="M395.269 290.965L393.315 290.659L392.441 288.749L391.567 290.659L389.612 290.965L391.026 292.452L390.692 294.551L392.441 293.56L394.189 294.551L393.855 292.452L395.269 290.965ZM393.258 291.729C393.04 291.958 392.94 292.296 392.993 292.626L393.017 292.781L392.834 292.677C392.711 292.607 392.576 292.572 392.441 292.572C392.307 292.572 392.172 292.607 392.048 292.677L391.865 292.781L391.89 292.626C391.942 292.296 391.842 291.958 391.624 291.729L391.557 291.658L391.688 291.638C391.971 291.594 392.215 291.398 392.346 291.112L392.442 290.903L392.537 291.112C392.668 291.398 392.913 291.594 393.195 291.638L393.326 291.658L393.258 291.729Z" fill="#FCBF49"/>
<path d="M552.778 245.085H460.196V161.397C460.196 159.548 461.524 158.049 463.163 158.049H549.81C551.449 158.049 552.778 159.548 552.778 161.397V245.085H552.778Z" fill="#CDFBDD"/>
<path d="M549.81 303.11H463.163C461.524 303.11 460.196 301.611 460.196 299.762V245.085H552.778V299.762C552.778 301.611 551.45 303.11 549.81 303.11Z" fill="white"/>
<path d="M543.579 259.591H469.395C468.576 259.591 467.911 258.842 467.911 257.918V255.462C467.911 254.538 468.575 253.789 469.395 253.789H543.579C544.399 253.789 545.063 254.538 545.063 255.462V257.918C545.063 258.842 544.399 259.591 543.579 259.591Z" fill="#7DBD8D"/>
<path d="M538.436 271.196H469.395C468.576 271.196 467.911 270.447 467.911 269.522V267.067C467.911 266.143 468.575 265.394 469.395 265.394H538.436C539.255 265.394 539.92 266.143 539.92 267.067V269.522C539.92 270.447 539.255 271.196 538.436 271.196Z" fill="#CDFBDD"/>
<path d="M507.575 282.801H469.395C468.575 282.801 467.911 282.052 467.911 281.127V278.672C467.911 277.748 468.575 276.999 469.395 276.999H507.575C508.394 276.999 509.059 277.748 509.059 278.672V281.127C509.059 282.052 508.394 282.801 507.575 282.801Z" fill="#D2D2D2"/>
<path d="M471.443 288.748L472.316 290.658L474.272 290.965L472.857 292.452L473.191 294.551L471.443 293.56L469.695 294.551L470.028 292.452L468.614 290.965L470.568 290.658L471.443 288.748Z" fill="#FCBF49"/>
<path d="M480.958 288.748L481.832 290.658L483.787 290.965L482.373 292.452L482.706 294.551L480.958 293.56L479.21 294.551L479.543 292.452L478.129 290.965L480.084 290.658L480.958 288.748Z" fill="#FCBF49"/>
<path d="M490.473 288.748L491.348 290.658L493.303 290.965L491.888 292.452L492.221 294.551L490.473 293.56L488.725 294.551L489.059 292.452L487.645 290.965L489.6 290.658L490.473 288.748Z" fill="#FCBF49"/>
<path d="M502.817 290.965L500.863 290.659L499.989 288.749L499.115 290.659L497.161 290.965L498.575 292.452L498.241 294.551L499.989 293.56L501.737 294.551L501.404 292.452L502.817 290.965ZM500.806 291.729L500.457 292.096L500.541 292.626L500.565 292.781L500.382 292.677L499.989 292.454L499.596 292.677L499.413 292.781L499.438 292.626L499.522 292.096L499.172 291.729L499.105 291.658L499.236 291.638L499.687 291.567L499.895 291.112L499.99 290.903L500.086 291.112L500.293 291.567L500.744 291.638L500.875 291.658L500.806 291.729Z" fill="#FCBF49"/>
<path d="M512.333 290.965L510.379 290.659L509.504 288.749L508.63 290.659L506.676 290.965L508.09 292.452L507.756 294.551L509.505 293.56L511.253 294.551L510.919 292.452L512.333 290.965ZM510.322 291.729L509.972 292.096L510.057 292.626L510.081 292.781L509.898 292.677L509.505 292.454L509.112 292.677L508.929 292.781L508.953 292.627L509.038 292.096L508.688 291.729L508.621 291.658L508.752 291.638L509.202 291.567L509.41 291.112L509.505 290.903L509.601 291.112L509.809 291.567L510.259 291.638L510.39 291.658L510.322 291.729Z" fill="#FCBF49"/>
<path d="M311.582 304.098H308.087C307.603 304.098 307.211 303.656 307.211 303.11C307.211 302.563 307.603 302.121 308.087 302.121H311.582C312.066 302.121 312.458 302.563 312.458 303.11C312.458 303.656 312.066 304.098 311.582 304.098ZM304.591 304.098H301.095C300.61 304.098 300.219 303.656 300.219 303.11C300.219 302.563 300.61 302.121 301.095 302.121H304.591C305.076 302.121 305.467 302.563 305.467 303.11C305.467 303.656 305.076 304.098 304.591 304.098ZM297.599 304.098H294.104C293.619 304.098 293.228 303.656 293.228 303.11C293.228 302.563 293.619 302.121 294.104 302.121H297.599C298.083 302.121 298.475 302.563 298.475 303.11C298.475 303.656 298.083 304.098 297.599 304.098ZM290.608 304.098H287.113C286.629 304.098 286.237 303.656 286.237 303.11C286.237 302.563 286.629 302.121 287.113 302.121H290.608C291.092 302.121 291.484 302.563 291.484 303.11C291.484 303.656 291.092 304.098 290.608 304.098ZM283.617 304.098H280.122C279.638 304.098 279.246 303.656 279.246 303.11C279.246 302.563 279.638 302.121 280.122 302.121H283.617C284.101 302.121 284.493 302.563 284.493 303.11C284.493 303.656 284.101 304.098 283.617 304.098ZM276.626 304.098H273.131C272.646 304.098 272.255 303.656 272.255 303.11C272.255 302.563 272.646 302.121 273.131 302.121H276.626C277.111 302.121 277.502 302.563 277.502 303.11C277.502 303.656 277.111 304.098 276.626 304.098ZM269.634 304.098H266.139C265.655 304.098 265.263 303.656 265.263 303.11C265.263 302.563 265.655 302.121 266.139 302.121H269.634C270.118 302.121 270.51 302.563 270.51 303.11C270.51 303.656 270.118 304.098 269.634 304.098ZM262.643 304.098H259.148C258.664 304.098 258.272 303.656 258.272 303.11C258.272 302.563 258.664 302.121 259.148 302.121H262.643C263.127 302.121 263.519 302.563 263.519 303.11C263.519 303.656 263.127 304.098 262.643 304.098ZM255.652 304.098H252.157C251.672 304.098 251.281 303.656 251.281 303.11C251.281 302.563 251.672 302.121 252.157 302.121H255.652C256.136 302.121 256.528 302.563 256.528 303.11C256.528 303.656 256.136 304.098 255.652 304.098ZM248.662 304.098H245.165C244.682 304.098 244.29 303.656 244.29 303.11C244.29 302.563 244.682 302.121 245.165 302.121H248.662C249.145 302.121 249.537 302.563 249.537 303.11C249.537 303.656 249.145 304.098 248.662 304.098ZM241.669 304.098H238.174C237.69 304.098 237.298 303.656 237.298 303.11C237.298 302.563 237.69 302.121 238.174 302.121H241.669C242.153 302.121 242.545 302.563 242.545 303.11C242.545 303.656 242.153 304.098 241.669 304.098ZM234.678 304.098H231.212C230.728 304.098 230.321 303.656 230.321 303.11C230.321 302.563 230.698 302.121 231.183 302.121H234.678C235.162 302.121 235.554 302.563 235.554 303.11C235.554 303.656 235.162 304.098 234.678 304.098ZM315.053 303.83C314.681 303.83 314.335 303.561 314.218 303.139C314.072 302.618 314.329 302.063 314.79 301.899C315.716 301.57 316.523 300.885 317.064 299.969C317.331 299.514 317.875 299.389 318.277 299.694C318.681 299.996 318.791 300.61 318.521 301.063C317.76 302.355 316.622 303.321 315.316 303.785C315.229 303.816 315.14 303.83 315.053 303.83ZM227.956 302.789C227.761 302.789 227.566 302.716 227.403 302.566C226.338 301.584 225.598 300.209 225.319 298.699C225.22 298.165 225.525 297.641 225.998 297.529C226.473 297.422 226.936 297.761 227.035 298.296C227.232 299.366 227.757 300.339 228.512 301.035C228.886 301.381 228.942 302.004 228.636 302.426C228.462 302.666 228.21 302.789 227.956 302.789ZM318.651 297.754C318.166 297.754 317.775 297.312 317.775 296.766V292.823C317.775 292.276 318.166 291.834 318.651 291.834C319.135 291.834 319.527 292.276 319.527 292.823V296.766C319.527 297.312 319.135 297.754 318.651 297.754ZM226.069 295.55C225.585 295.55 225.193 295.108 225.193 294.561V290.618C225.193 290.072 225.585 289.63 226.069 289.63C226.553 289.63 226.945 290.072 226.945 290.618V294.561C226.945 295.108 226.553 295.55 226.069 295.55ZM318.651 289.867C318.166 289.867 317.775 289.426 317.775 288.879V284.936C317.775 284.389 318.166 283.948 318.651 283.948C319.135 283.948 319.527 284.389 319.527 284.936V288.879C319.527 289.426 319.135 289.867 318.651 289.867ZM226.069 287.663C225.585 287.663 225.193 287.221 225.193 286.675V282.731C225.193 282.185 225.585 281.743 226.069 281.743C226.553 281.743 226.945 282.185 226.945 282.731V286.675C226.945 287.221 226.553 287.663 226.069 287.663ZM318.651 281.98C318.166 281.98 317.775 281.538 317.775 280.991V277.048C317.775 276.502 318.166 276.06 318.651 276.06C319.135 276.06 319.527 276.502 319.527 277.048V280.991C319.527 281.538 319.135 281.98 318.651 281.98ZM226.069 279.776C225.585 279.776 225.193 279.333 225.193 278.787V274.844C225.193 274.298 225.585 273.855 226.069 273.855C226.553 273.855 226.945 274.298 226.945 274.844V278.787C226.945 279.333 226.553 279.776 226.069 279.776ZM318.651 274.093C318.166 274.093 317.775 273.651 317.775 273.105V269.161C317.775 268.615 318.166 268.173 318.651 268.173C319.135 268.173 319.527 268.615 319.527 269.161V273.105C319.527 273.651 319.135 274.093 318.651 274.093ZM226.069 271.889C225.585 271.889 225.193 271.447 225.193 270.9V266.957C225.193 266.411 225.585 265.969 226.069 265.969C226.553 265.969 226.945 266.411 226.945 266.957V270.9C226.945 271.447 226.553 271.889 226.069 271.889ZM318.651 266.206C318.166 266.206 317.775 265.765 317.775 265.218V261.275C317.775 260.728 318.166 260.287 318.651 260.287C319.135 260.287 319.527 260.728 319.527 261.275V265.218C319.527 265.765 319.135 266.206 318.651 266.206ZM226.069 264.002C225.585 264.002 225.193 263.56 225.193 263.014V259.07C225.193 258.524 225.585 258.082 226.069 258.082C226.553 258.082 226.945 258.524 226.945 259.07V263.014C226.945 263.56 226.553 264.002 226.069 264.002ZM318.651 258.32C318.166 258.32 317.775 257.878 317.775 257.331V253.388C317.775 252.842 318.166 252.4 318.651 252.4C319.135 252.4 319.527 252.842 319.527 253.388V257.331C319.527 257.878 319.135 258.32 318.651 258.32ZM226.069 256.115C225.585 256.115 225.193 255.674 225.193 255.127V251.184C225.193 250.637 225.585 250.196 226.069 250.196C226.553 250.196 226.945 250.637 226.945 251.184V255.127C226.945 255.674 226.553 256.115 226.069 256.115ZM318.651 250.432C318.166 250.432 317.775 249.99 317.775 249.443V245.5C317.775 244.954 318.166 244.512 318.651 244.512C319.135 244.512 319.527 244.954 319.527 245.5V249.443C319.527 249.99 319.135 250.432 318.651 250.432ZM226.069 248.229C225.585 248.229 225.193 247.787 225.193 247.24V243.296C225.193 242.75 225.585 242.308 226.069 242.308C226.553 242.308 226.945 242.75 226.945 243.296V247.24C226.945 247.787 226.553 248.229 226.069 248.229ZM318.651 242.545C318.166 242.545 317.775 242.103 317.775 241.557V237.614C317.775 237.067 318.166 236.625 318.651 236.625C319.135 236.625 319.527 237.067 319.527 237.614V241.557C319.527 242.103 319.135 242.545 318.651 242.545ZM226.069 240.341C225.585 240.341 225.193 239.899 225.193 239.352V235.409C225.193 234.863 225.585 234.421 226.069 234.421C226.553 234.421 226.945 234.863 226.945 235.409V239.352C226.945 239.899 226.553 240.341 226.069 240.341ZM318.651 234.658C318.166 234.658 317.775 234.217 317.775 233.67V229.727C317.775 229.18 318.166 228.739 318.651 228.739C319.135 228.739 319.527 229.18 319.527 229.727V233.67C319.527 234.217 319.135 234.658 318.651 234.658ZM226.069 232.454C225.585 232.454 225.193 232.012 225.193 231.466V227.522C225.193 226.976 225.585 226.534 226.069 226.534C226.553 226.534 226.945 226.976 226.945 227.522V231.466C226.945 232.012 226.553 232.454 226.069 232.454ZM318.651 226.772C318.166 226.772 317.775 226.33 317.775 225.784V221.84C317.775 221.294 318.166 220.852 318.651 220.852C319.135 220.852 319.527 221.294 319.527 221.84V225.784C319.527 226.33 319.135 226.772 318.651 226.772ZM226.069 224.567C225.585 224.567 225.193 224.126 225.193 223.579V219.636C225.193 219.089 225.585 218.648 226.069 218.648C226.553 218.648 226.945 219.089 226.945 219.636V223.579C226.945 224.126 226.553 224.567 226.069 224.567ZM318.651 218.884C318.166 218.884 317.775 218.442 317.775 217.896V213.952C317.775 213.406 318.166 212.964 318.651 212.964C319.135 212.964 319.527 213.406 319.527 213.952V217.896C319.527 218.442 319.135 218.884 318.651 218.884ZM226.069 216.681C225.585 216.681 225.193 216.239 225.193 215.693V211.748C225.193 211.202 225.585 210.76 226.069 210.76C226.553 210.76 226.945 211.202 226.945 211.748V215.693C226.945 216.239 226.553 216.681 226.069 216.681ZM318.651 210.997C318.166 210.997 317.775 210.556 317.775 210.009V206.066C317.775 205.519 318.166 205.078 318.651 205.078C319.135 205.078 319.527 205.519 319.527 206.066V210.009C319.527 210.556 319.135 210.997 318.651 210.997ZM226.069 208.793C225.585 208.793 225.193 208.351 225.193 207.805V203.861C225.193 203.315 225.585 202.873 226.069 202.873C226.553 202.873 226.945 203.315 226.945 203.861V207.805C226.945 208.351 226.553 208.793 226.069 208.793ZM318.651 203.111C318.166 203.111 317.775 202.669 317.775 202.122V198.179C317.775 197.633 318.166 197.191 318.651 197.191C319.135 197.191 319.527 197.633 319.527 198.179V202.122C319.527 202.669 319.135 203.111 318.651 203.111ZM226.069 200.906C225.585 200.906 225.193 200.465 225.193 199.918V195.975C225.193 195.428 225.585 194.987 226.069 194.987C226.553 194.987 226.945 195.428 226.945 195.975V199.918C226.945 200.465 226.553 200.906 226.069 200.906ZM318.651 195.224C318.166 195.224 317.775 194.782 317.775 194.236V190.292C317.775 189.746 318.166 189.303 318.651 189.303C319.135 189.303 319.527 189.746 319.527 190.292V194.236C319.527 194.782 319.135 195.224 318.651 195.224ZM226.069 193.02C225.585 193.02 225.193 192.577 225.193 192.031V188.088C225.193 187.542 225.585 187.099 226.069 187.099C226.553 187.099 226.945 187.542 226.945 188.088V192.031C226.945 192.577 226.553 193.02 226.069 193.02ZM318.651 187.337C318.166 187.337 317.775 186.894 317.775 186.348V182.405C317.775 181.859 318.166 181.416 318.651 181.416C319.135 181.416 319.527 181.859 319.527 182.405V186.348C319.527 186.894 319.135 187.337 318.651 187.337ZM226.069 185.133C225.585 185.133 225.193 184.69 225.193 184.144V180.201C225.193 179.655 225.585 179.212 226.069 179.212C226.553 179.212 226.945 179.655 226.945 180.201V184.144C226.945 184.69 226.553 185.133 226.069 185.133ZM318.651 179.45C318.166 179.45 317.775 179.008 317.775 178.461V174.518C317.775 173.973 318.166 173.53 318.651 173.53C319.135 173.53 319.527 173.972 319.527 174.518V178.461C319.527 179.008 319.135 179.45 318.651 179.45ZM226.069 177.246C225.585 177.246 225.193 176.803 225.193 176.257V172.314C225.193 171.768 225.585 171.325 226.069 171.325C226.553 171.325 226.945 171.768 226.945 172.314V176.257C226.945 176.803 226.553 177.246 226.069 177.246ZM318.651 171.563C318.166 171.563 317.775 171.12 317.775 170.575V166.631C317.775 166.086 318.166 165.643 318.651 165.643C319.135 165.643 319.527 166.086 319.527 166.631V170.575C319.527 171.12 319.135 171.563 318.651 171.563ZM226.069 169.358C225.585 169.358 225.193 168.916 225.193 168.37V164.427C225.193 163.881 225.585 163.439 226.069 163.439C226.553 163.439 226.945 163.881 226.945 164.427V168.37C226.945 168.916 226.553 169.358 226.069 169.358ZM318.548 163.684C318.14 163.684 317.775 163.361 317.69 162.892C317.497 161.82 316.978 160.843 316.226 160.141C315.853 159.794 315.802 159.17 316.109 158.75C316.418 158.33 316.971 158.27 317.343 158.619C318.403 159.608 319.136 160.986 319.408 162.5C319.504 163.035 319.197 163.556 318.723 163.664C318.665 163.678 318.606 163.684 318.548 163.684ZM226.91 161.659C226.744 161.659 226.578 161.606 226.43 161.496C226.025 161.197 225.913 160.584 226.178 160.128C226.932 158.832 228.065 157.858 229.369 157.386C229.83 157.219 230.324 157.505 230.472 158.025C230.62 158.544 230.367 159.1 229.905 159.267C228.982 159.602 228.179 160.293 227.643 161.213C227.474 161.502 227.195 161.659 226.91 161.659ZM313.548 159.038L313.567 158.05L313.548 159.038ZM313.507 159.038H310.011C309.527 159.038 309.135 158.595 309.135 158.05C309.135 157.504 309.527 157.062 310.011 157.062H313.507L313.567 158.05L313.507 159.038ZM306.515 159.038H303.02C302.536 159.038 302.144 158.595 302.144 158.05C302.144 157.504 302.536 157.062 303.02 157.062H306.515C307 157.062 307.391 157.504 307.391 158.05C307.391 158.595 307 159.038 306.515 159.038ZM299.524 159.038H296.028C295.544 159.038 295.152 158.595 295.152 158.05C295.152 157.504 295.544 157.062 296.028 157.062H299.524C300.008 157.062 300.4 157.504 300.4 158.05C300.4 158.595 300.008 159.038 299.524 159.038ZM292.533 159.038H289.037C288.553 159.038 288.161 158.595 288.161 158.05C288.161 157.504 288.553 157.062 289.037 157.062H292.533C293.017 157.062 293.408 157.504 293.408 158.05C293.408 158.595 293.017 159.038 292.533 159.038ZM285.541 159.038H282.046C281.562 159.038 281.17 158.595 281.17 158.05C281.17 157.504 281.562 157.062 282.046 157.062H285.541C286.026 157.062 286.417 157.504 286.417 158.05C286.417 158.595 286.026 159.038 285.541 159.038ZM278.55 159.038H275.055C274.571 159.038 274.179 158.595 274.179 158.05C274.179 157.504 274.571 157.062 275.055 157.062H278.55C279.034 157.062 279.426 157.504 279.426 158.05C279.426 158.595 279.034 159.038 278.55 159.038ZM271.559 159.038H268.063C267.579 159.038 267.187 158.595 267.187 158.05C267.187 157.504 267.579 157.062 268.063 157.062H271.559C272.044 157.062 272.435 157.504 272.435 158.05C272.435 158.595 272.044 159.038 271.559 159.038ZM264.567 159.038H261.072C260.587 159.038 260.196 158.595 260.196 158.05C260.196 157.504 260.587 157.062 261.072 157.062H264.567C265.052 157.062 265.443 157.504 265.443 158.05C265.443 158.595 265.052 159.038 264.567 159.038ZM257.576 159.038H254.081C253.597 159.038 253.205 158.595 253.205 158.05C253.205 157.504 253.597 157.062 254.081 157.062H257.576C258.06 157.062 258.452 157.504 258.452 158.05C258.452 158.595 258.06 159.038 257.576 159.038ZM250.585 159.038H247.09C246.606 159.038 246.214 158.595 246.214 158.05C246.214 157.504 246.606 157.062 247.09 157.062H250.585C251.069 157.062 251.461 157.504 251.461 158.05C251.461 158.595 251.069 159.038 250.585 159.038ZM243.594 159.038H240.099C239.614 159.038 239.223 158.595 239.223 158.05C239.223 157.504 239.614 157.062 240.099 157.062H243.594C244.079 157.062 244.47 157.504 244.47 158.05C244.47 158.595 244.079 159.038 243.594 159.038ZM236.602 159.038H233.107C232.623 159.038 232.231 158.595 232.231 158.05C232.231 157.504 232.623 157.062 233.107 157.062H236.602C237.086 157.062 237.478 157.504 237.478 158.05C237.478 158.595 237.086 159.038 236.602 159.038Z" fill="#D4D4D4"/>
<path d="M669.842 245.085H577.259V161.397C577.259 159.548 578.588 158.049 580.227 158.049H666.874C668.513 158.049 669.841 159.548 669.841 161.397V245.085H669.842Z" fill="#CDFBDD"/>
<path d="M666.874 303.11H580.227C578.588 303.11 577.259 301.611 577.259 299.762V245.085H669.842V299.762C669.842 301.611 668.514 303.11 666.874 303.11Z" fill="white"/>
<path d="M660.643 259.591H586.459C585.639 259.591 584.974 258.842 584.974 257.918V255.462C584.974 254.538 585.638 253.789 586.459 253.789H660.643C661.462 253.789 662.127 254.538 662.127 255.462V257.918C662.127 258.842 661.462 259.591 660.643 259.591Z" fill="#7DBD8D"/>
<path d="M640.069 271.196H586.459C585.639 271.196 584.974 270.447 584.974 269.522V267.067C584.974 266.143 585.638 265.394 586.459 265.394H640.069C640.889 265.394 641.553 266.143 641.553 267.067V269.522C641.553 270.447 640.889 271.196 640.069 271.196Z" fill="#CDFBDD"/>
<path d="M624.639 282.801H586.459C585.639 282.801 584.974 282.052 584.974 281.127V278.672C584.974 277.748 585.638 276.999 586.459 276.999H624.639C625.458 276.999 626.122 277.748 626.122 278.672V281.127C626.122 282.052 625.458 282.801 624.639 282.801Z" fill="#D2D2D2"/>
<path d="M588.507 288.748L589.38 290.658L591.335 290.965L589.921 292.452L590.255 294.551L588.507 293.56L586.758 294.551L587.092 292.452L585.677 290.965L587.632 290.658L588.507 288.748Z" fill="#FCBF49"/>
<path d="M598.022 288.748L598.896 290.658L600.851 290.965L599.436 292.452L599.77 294.551L598.022 293.56L596.274 294.551L596.608 292.452L595.193 290.965L597.147 290.658L598.022 288.748Z" fill="#FCBF49"/>
<path d="M607.537 288.748L608.411 290.658L610.366 290.965L608.952 292.452L609.286 294.551L607.537 293.56L605.789 294.551L606.123 292.452L604.708 290.965L606.663 290.658L607.537 288.748Z" fill="#FCBF49"/>
<path d="M617.052 288.748L617.926 290.658L619.882 290.965L618.467 292.452L618.801 294.551L617.052 293.56L615.304 294.551L615.638 292.452L614.223 290.965L616.179 290.658L617.052 288.748Z" fill="#FCBF49"/>
<path d="M629.397 290.965L627.442 290.659L626.568 288.749L625.694 290.659L623.74 290.965L625.154 292.452L624.82 294.551L626.569 293.56L628.317 294.551L627.983 292.452L629.397 290.965ZM627.386 291.729L627.037 292.096L627.12 292.626L627.145 292.781L626.962 292.677L626.569 292.454L626.175 292.677L625.992 292.781L626.017 292.626L626.101 292.096L625.752 291.729L625.685 291.658L625.816 291.638L626.265 291.567L626.473 291.112L626.569 290.903L626.665 291.112L626.873 291.567L627.323 291.638L627.454 291.658L627.386 291.729Z" fill="#FCBF49"/>
<path d="M786.905 245.085H694.323V161.397C694.323 159.548 695.651 158.049 697.29 158.049H783.938C785.576 158.049 786.905 159.548 786.905 161.397V245.085H786.905Z" fill="#CDFBDD"/>
<path d="M783.938 303.11H697.291C695.651 303.11 694.323 301.611 694.323 299.762V245.085H786.906V299.762C786.906 301.611 785.577 303.11 783.938 303.11Z" fill="white"/>
<path d="M777.707 259.591H703.522C702.703 259.591 702.039 258.842 702.039 257.918V255.462C702.039 254.538 702.702 253.789 703.522 253.789H777.707C778.526 253.789 779.191 254.538 779.191 255.462V257.918C779.191 258.842 778.526 259.591 777.707 259.591Z" fill="#7DBD8D"/>
<path d="M767.42 271.196H703.522C702.703 271.196 702.039 270.447 702.039 269.522V267.067C702.039 266.143 702.702 265.394 703.522 265.394H767.42C768.239 265.394 768.904 266.143 768.904 267.067V269.522C768.903 270.447 768.239 271.196 767.42 271.196Z" fill="#CDFBDD"/>
<path d="M741.703 282.801H703.522C702.703 282.801 702.039 282.052 702.039 281.127V278.672C702.039 277.748 702.702 276.999 703.522 276.999H741.703C742.522 276.999 743.187 277.748 743.187 278.672V281.127C743.187 282.052 742.522 282.801 741.703 282.801Z" fill="#D2D2D2"/>
<path d="M705.57 288.748L706.444 290.658L708.399 290.965L706.985 292.452L707.319 294.551L705.57 293.56L703.822 294.551L704.156 292.452L702.741 290.965L704.696 290.658L705.57 288.748Z" fill="#FCBF49"/>
<path d="M715.085 288.748L715.96 290.658L717.915 290.965L716.5 292.452L716.834 294.551L715.085 293.56L713.337 294.551L713.671 292.452L712.256 290.965L714.212 290.658L715.085 288.748Z" fill="#FCBF49"/>
<path d="M724.601 288.748L725.475 290.658L727.43 290.965L726.016 292.452L726.349 294.551L724.601 293.56L722.852 294.551L723.186 292.452L721.772 290.965L723.727 290.658L724.601 288.748Z" fill="#FCBF49"/>
<path d="M734.116 288.748L734.99 290.658L736.945 290.965L735.531 292.452L735.865 294.551L734.116 293.56L732.368 294.551L732.702 292.452L731.287 290.965L733.242 290.658L734.116 288.748Z" fill="#FCBF49"/>
<path d="M746.46 290.965L744.506 290.659L743.632 288.749L742.758 290.659L740.803 290.965L742.218 292.452L741.884 294.551L743.632 293.56L745.38 294.551L745.046 292.452L746.46 290.965ZM744.448 291.729L744.099 292.096L744.184 292.626L744.208 292.781L744.025 292.677L743.632 292.454L743.239 292.677L743.056 292.781L743.08 292.627L743.165 292.096L742.815 291.729L742.748 291.658L742.879 291.638L743.328 291.567L743.536 291.112L743.632 290.903L743.727 291.112L743.935 291.567L744.385 291.638L744.517 291.658L744.448 291.729Z" fill="#FCBF49"/>
<path d="M740.615 205.243C733.853 205.243 728.351 199.038 728.351 191.409C728.351 183.781 733.853 177.575 740.615 177.575C747.377 177.575 752.878 183.781 752.878 191.409C752.877 199.038 747.377 205.243 740.615 205.243ZM740.615 182.516C736.268 182.516 732.731 186.505 732.731 191.409C732.731 196.313 736.268 200.302 740.615 200.302C744.961 200.302 748.497 196.313 748.497 191.409C748.497 186.505 744.961 182.516 740.615 182.516Z" fill="white"/>
<path d="M327.271 354.752H229.439C227.577 354.752 226.069 353.049 226.069 350.95V345.373C226.069 343.273 227.577 341.571 229.439 341.571H327.271C329.132 341.571 330.641 343.273 330.641 345.373V350.95C330.641 353.049 329.132 354.752 327.271 354.752Z" fill="white"/>
<path d="M784.386 354.752H731.004C729.613 354.752 728.485 353.479 728.485 351.91V344.413C728.485 342.843 729.613 341.571 731.004 341.571H784.386C785.777 341.571 786.905 342.843 786.905 344.413V351.91C786.905 353.479 785.777 354.752 784.386 354.752Z" fill="white"/>
<path d="M397.96 407.476H229.439C227.577 407.476 226.068 405.774 226.068 403.674V378.326C226.068 376.226 227.577 374.523 229.439 374.523H397.96C399.821 374.523 401.33 376.226 401.33 378.326V403.674C401.33 405.774 399.821 407.476 397.96 407.476Z" fill="white"/>
<path d="M388.579 395.942H259.267C257.87 395.942 256.739 394.666 256.739 393.09V388.908C256.739 387.333 257.87 386.057 259.267 386.057H388.578C389.974 386.057 391.106 387.333 391.106 388.908V393.09C391.106 394.666 389.975 395.942 388.579 395.942Z" fill="#CDFBDD"/>
<path d="M250.897 390.999C250.897 395.549 247.628 399.237 243.595 399.237C239.562 399.237 236.292 395.549 236.292 390.999C236.292 386.45 239.562 382.761 243.595 382.761C247.628 382.761 250.897 386.45 250.897 390.999Z" fill="#7DBD8D"/>
<path d="M590.747 407.476H422.227C420.365 407.476 418.856 405.774 418.856 403.674V378.326C418.856 376.226 420.365 374.523 422.227 374.523H590.747C592.609 374.523 594.118 376.226 594.118 378.326V403.674C594.118 405.774 592.609 407.476 590.747 407.476Z" fill="white"/>
<path d="M581.366 395.942H452.055C450.659 395.942 449.527 394.666 449.527 393.09V388.908C449.527 387.333 450.659 386.057 452.055 386.057H581.366C582.763 386.057 583.894 387.333 583.894 388.908V393.09C583.894 394.666 582.763 395.942 581.366 395.942Z" fill="#CDFBDD"/>
<path d="M443.685 390.999C443.685 395.549 440.416 399.237 436.382 399.237C432.349 399.237 429.08 395.549 429.08 390.999C429.08 386.45 432.349 382.761 436.382 382.761C440.416 382.761 443.685 386.45 443.685 390.999Z" fill="#7DBD8D"/>
<path d="M783.535 407.476H615.014C613.153 407.476 611.644 405.774 611.644 403.674V378.326C611.644 376.226 613.153 374.523 615.014 374.523H783.535C785.396 374.523 786.905 376.226 786.905 378.326V403.674C786.905 405.774 785.396 407.476 783.535 407.476Z" fill="white"/>
<path d="M774.154 395.942H644.843C643.446 395.942 642.315 394.666 642.315 393.09V388.908C642.315 387.333 643.446 386.057 644.843 386.057H774.154C775.55 386.057 776.682 387.333 776.682 388.908V393.09C776.682 394.666 775.55 395.942 774.154 395.942Z" fill="#CDFBDD"/>
<path d="M636.472 390.999C636.472 395.549 633.203 399.237 629.17 399.237C625.137 399.237 621.868 395.549 621.868 390.999C621.868 386.45 625.137 382.761 629.17 382.761C633.203 382.761 636.472 386.45 636.472 390.999Z" fill="#7DBD8D"/>
<path d="M397.96 454.934H229.439C227.577 454.934 226.068 453.233 226.068 451.132V425.783C226.068 423.684 227.577 421.982 229.439 421.982H397.96C399.821 421.982 401.33 423.684 401.33 425.783V451.132C401.33 453.233 399.821 454.934 397.96 454.934Z" fill="white"/>
<path d="M388.579 443.401H259.267C257.87 443.401 256.739 442.124 256.739 440.549V436.366C256.739 434.791 257.87 433.515 259.267 433.515H388.578C389.974 433.515 391.106 434.791 391.106 436.366V440.549C391.106 442.124 389.975 443.401 388.579 443.401Z" fill="#CDFBDD"/>
<path d="M250.897 438.458C250.897 443.007 247.628 446.696 243.595 446.696C239.562 446.696 236.292 443.007 236.292 438.458C236.292 433.909 239.562 430.22 243.595 430.22C247.628 430.22 250.897 433.909 250.897 438.458Z" fill="#7DBD8D"/>
<path d="M590.747 454.934H422.227C420.365 454.934 418.856 453.233 418.856 451.132V425.783C418.856 423.684 420.365 421.982 422.227 421.982H590.747C592.609 421.982 594.118 423.684 594.118 425.783V451.132C594.118 453.233 592.609 454.934 590.747 454.934Z" fill="white"/>
<path d="M581.366 443.401H452.055C450.659 443.401 449.527 442.124 449.527 440.549V436.366C449.527 434.791 450.659 433.515 452.055 433.515H581.366C582.763 433.515 583.894 434.791 583.894 436.366V440.549C583.894 442.124 582.763 443.401 581.366 443.401Z" fill="#CDFBDD"/>
<path d="M443.685 438.458C443.685 443.007 440.416 446.696 436.382 446.696C432.349 446.696 429.08 443.007 429.08 438.458C429.08 433.909 432.349 430.22 436.382 430.22C440.416 430.22 443.685 433.909 443.685 438.458Z" fill="#7DBD8D"/>
<path d="M783.535 454.934H615.014C613.153 454.934 611.644 453.233 611.644 451.132V425.783C611.644 423.684 613.153 421.982 615.014 421.982H783.535C785.396 421.982 786.905 423.684 786.905 425.783V451.132C786.905 453.233 785.396 454.934 783.535 454.934Z" fill="white"/>
<path d="M774.154 443.401H644.843C643.446 443.401 642.315 442.124 642.315 440.549V436.366C642.315 434.791 643.446 433.515 644.843 433.515H774.154C775.55 433.515 776.682 434.791 776.682 436.366V440.549C776.682 442.124 775.55 443.401 774.154 443.401Z" fill="#CDFBDD"/>
<path d="M636.472 438.458C636.472 443.007 633.203 446.696 629.17 446.696C625.137 446.696 621.868 443.007 621.868 438.458C621.868 433.909 625.137 430.22 629.17 430.22C633.203 430.22 636.472 433.909 636.472 438.458Z" fill="#7DBD8D"/>
<path d="M171.582 314.601C176.32 312.024 201.655 284.973 201.655 284.973C201.655 284.973 202.163 277.337 202.332 274.855C202.501 272.374 203.898 270.035 204.786 269.08C205.675 268.126 206.774 269.462 206.013 271.276C205.251 273.09 204.658 275.38 205.801 275.094C206.944 274.808 206.093 274.404 208.251 271.612C209.259 270.307 210.341 270.625 210.659 271.388C211.022 272.257 210.913 273.197 210.913 273.197C210.913 273.197 212.248 274.16 211.456 277.321C211.456 277.321 212.685 278.78 211.948 281.024C211.948 281.024 213.585 283.358 211.468 285.985C208.706 289.412 207.932 288.539 204.293 292.261C200.655 295.984 191.232 311.167 186.663 317.18C182.095 323.194 181.482 327.774 175.644 330.446C169.805 333.119 166.844 317.178 171.582 314.601Z" fill="#F4C0BD"/>
<path d="M297.939 265.763H205.357V181.346C205.357 179.899 206.397 178.726 207.679 178.726H295.617C296.899 178.726 297.939 179.899 297.939 181.346V265.763H297.939Z" fill="#CDFBDD"/>
<path d="M295.616 323.787H207.678C206.396 323.787 205.356 322.614 205.356 321.167V265.763H297.939V321.167C297.939 322.614 296.899 323.787 295.616 323.787Z" fill="white"/>
<path d="M288.74 280.269H214.555C213.737 280.269 213.072 279.52 213.072 278.595V276.14C213.072 275.216 213.736 274.467 214.555 274.467H288.74C289.559 274.467 290.224 275.216 290.224 276.14V278.595C290.224 279.52 289.559 280.269 288.74 280.269Z" fill="#7DBD8D"/>
<path d="M288.74 291.874H214.555C213.737 291.874 213.072 291.125 213.072 290.2V287.745C213.072 286.821 213.736 286.071 214.555 286.071H288.74C289.559 286.071 290.224 286.821 290.224 287.745V290.2C290.224 291.125 289.559 291.874 288.74 291.874Z" fill="#CDFBDD"/>
<path d="M252.736 303.478H214.555C213.736 303.478 213.072 302.729 213.072 301.804V299.349C213.072 298.425 213.736 297.676 214.555 297.676H252.736C253.555 297.676 254.219 298.425 254.219 299.349V301.804C254.219 302.729 253.555 303.478 252.736 303.478Z" fill="#D2D2D2"/>
<path d="M216.603 309.426L217.478 311.336L219.432 311.642L218.018 313.129L218.352 315.229L216.603 314.237L214.855 315.229L215.189 313.129L213.774 311.642L215.729 311.336L216.603 309.426Z" fill="#FCBF49"/>
<path d="M226.119 309.426L226.993 311.336L228.947 311.642L227.533 313.129L227.867 315.229L226.119 314.237L224.371 315.229L224.704 313.129L223.29 311.642L225.244 311.336L226.119 309.426Z" fill="#FCBF49"/>
<path d="M235.634 309.426L236.508 311.336L238.463 311.642L237.049 313.129L237.383 315.229L235.634 314.237L233.886 315.229L234.22 313.129L232.805 311.642L234.76 311.336L235.634 309.426Z" fill="#FCBF49"/>
<path d="M245.15 309.426L246.023 311.336L247.979 311.642L246.564 313.129L246.898 315.229L245.15 314.237L243.401 315.229L243.735 313.129L242.32 311.642L244.276 311.336L245.15 309.426Z" fill="#FCBF49"/>
<path d="M254.665 309.426L255.54 311.336L257.494 311.642L256.08 313.129L256.413 315.229L254.665 314.237L252.917 315.229L253.25 313.129L251.836 311.642L253.791 311.336L254.665 309.426Z" fill="#FCBF49"/>
<path d="M236.223 248.839H224.896C224.473 248.839 224.131 248.453 224.131 247.975V230.78C224.131 230.304 224.473 229.917 224.896 229.917H236.223C236.646 229.917 236.989 230.304 236.989 230.78V247.975C236.988 248.453 236.646 248.839 236.223 248.839Z" fill="#7DBD8D"/>
<path d="M235.348 229.917H225.771V212.845C225.771 212.607 225.942 212.414 226.154 212.414H234.965C235.177 212.414 235.348 212.607 235.348 212.845V229.917H235.348Z" fill="white"/>
<path d="M234.063 212.414H227.055V200.967C227.055 200.143 227.443 199.379 228.08 198.949L232.759 195.791C233.33 195.405 234.063 195.859 234.063 196.598V212.414Z" fill="#4A7856"/>
<path d="M279.165 201.674H250.362V246.352H279.165V201.674Z" fill="#7DBD8D"/>
<path d="M271.964 201.674H243.161V246.352H271.964V201.674Z" fill="white"/>
<path d="M262.836 218.677L262.84 218.681C264.295 220.323 264.291 222.985 262.836 224.627L257.559 230.58L252.285 224.631C250.83 222.989 250.834 220.327 252.289 218.685L252.293 218.681C253.748 217.04 256.105 217.04 257.559 218.681L257.563 218.677C259.017 217.036 261.381 217.036 262.836 218.677Z" fill="#4A7856"/>
<path d="M182.61 691.356L182.083 706.357H191.75L192.181 703.027C192.181 703.027 197.435 703.76 203.836 703.552C210.236 703.344 215.424 702.096 215.424 702.096C216.212 702.005 216.788 701.217 216.717 700.327C216.67 699.73 216.342 699.212 215.855 698.972C213.701 697.917 207.596 695.143 203.369 695.407C198.157 695.732 196.002 695.72 195.078 691.356H182.61Z" fill="#1E0F00"/>
<path d="M169.23 482.702C169.23 482.702 179.468 543.981 185.221 564.98C185.221 564.98 186.236 602.015 185.221 616.523C184.206 631.032 182.514 691.356 182.514 691.356H195.078C195.078 691.356 209.927 598.196 208.912 563.453C207.897 528.709 201.425 482.702 201.425 482.702H169.23V482.702Z" fill="#FFBE55"/>
<path d="M223.042 486.425V575.67C223.042 589.415 192.667 697.465 192.667 697.465L179.806 694.028L198.759 575.288C198.759 575.288 188.267 520.01 188.267 494.769L223.042 486.425Z" fill="#FFBE55"/>
<path d="M233.322 341.675C233.322 341.675 243.771 339.527 248.509 336.95C253.248 334.374 291.322 298.484 291.322 298.484C291.322 298.484 291.83 290.848 291.999 288.366C292.169 285.884 293.565 283.546 294.454 282.591C295.342 281.637 296.442 282.973 295.68 284.787C294.919 286.6 294.327 288.891 295.469 288.605C296.611 288.318 295.761 287.915 297.919 285.123C298.927 283.818 300.009 284.136 300.327 284.899C300.689 285.768 300.581 286.708 300.581 286.708C300.581 286.708 301.917 287.671 301.124 290.831C301.124 290.831 302.353 292.291 301.616 294.534C301.616 294.534 303.254 296.869 301.136 299.496C298.373 302.923 297.599 302.049 293.961 305.772C290.323 309.495 275.079 329.314 270.51 335.328C265.941 341.341 258.411 350.122 252.572 352.795C246.735 355.467 238.273 358.999 238.273 358.999L233.322 341.675Z" fill="#FECCC6"/>
<path d="M169.23 482.702C169.23 482.702 169.737 495.588 192.074 494.729C214.411 493.869 223.041 486.425 223.041 486.425C223.041 486.425 220.758 442.899 221.264 427.723C221.772 412.547 229.514 395.222 220.63 374.032C220.63 374.032 235.311 371.325 242.926 362.449L236.494 336.95C236.494 336.95 218.472 344.682 207.303 345.827C196.135 346.972 184.205 343.823 177.605 354.131C171.005 364.44 173.865 374.265 175.552 400.885C176.822 420.884 181.921 455.213 169.23 482.702Z" fill="#4A7856"/>
<path d="M197.405 280.348C197.405 280.348 200.789 291.802 205.358 294.857C209.927 297.911 212.634 299.343 212.55 300.393C212.465 301.442 210.35 302.111 209.25 302.779C208.15 303.447 208.912 309.174 210.35 310.891C211.789 312.609 213.227 319.96 210.35 320.723C207.474 321.487 203.243 319.673 202.651 321.009C202.059 322.346 203.597 334.85 205.197 340.958C206.797 347.067 207.643 349.262 207.643 349.262L192.159 355.181L185.306 323.586C185.306 323.587 166.099 288.175 197.405 280.348Z" fill="#FECCC6"/>
<path d="M199.69 279.394C203.294 289.357 201.34 298.007 200.705 305.595C200.07 313.183 208.066 331.939 208.955 342.82C209.842 353.702 202.989 394.697 178.79 394.124C154.592 393.552 146.3 374.271 153.915 359.19C161.53 344.109 171.006 336.855 165.253 321.774C159.499 306.692 163.223 289.512 167.961 287.793C167.961 287.793 172.699 272.712 184.714 272.712C196.728 272.712 198.743 276.779 199.69 279.394Z" fill="#1E0F00"/>
<path d="M179.806 694.028L176.478 708.565L185.83 711.132L186.321 709.014C186.321 709.014 192.457 712.493 197.514 714.338C202.573 716.184 209.081 717.512 209.081 717.512C209.849 717.732 210.63 717.216 210.837 716.353C210.975 715.774 210.824 715.16 210.44 714.748C208.74 712.919 203.855 707.943 199.805 706.551C194.812 704.832 192.751 701.951 192.667 697.465L179.806 694.028Z" fill="#1E0F00"/>
<path d="M66.5466 591.351C59.039 591.351 50.1895 572.527 38.1105 546.835L38.0119 546.626C26.1457 521.042 21.8806 505.663 24.5875 498.223C25.4245 495.921 26.9275 494.365 29.0537 493.598C34.2719 491.637 42.2709 495.441 50.4391 503.783C59.0809 512.607 66.3667 525.055 70.4286 537.934C77.5668 560.009 76.317 578.767 72.1348 586.855C70.8157 589.409 69.1757 590.935 67.3922 591.27C67.1122 591.324 66.8312 591.351 66.5466 591.351ZM31.9972 494.918C31.1147 494.918 30.2975 495.055 29.5571 495.334C27.8751 495.941 26.7425 497.112 26.0865 498.916C23.6091 505.725 27.9787 521.053 39.4447 545.774L39.5412 545.98C50.5023 569.294 60.0129 589.522 66.5411 589.524C66.7382 589.524 66.9307 589.506 67.1223 589.468C68.4186 589.225 69.6675 588.004 70.7369 585.935C76.1861 575.396 73.9411 554.123 68.9068 538.556L68.9048 538.549C64.9289 525.943 57.8028 513.765 49.3525 505.136C42.9653 498.613 36.5978 494.918 31.9972 494.918Z" fill="#CDFBDD"/>
<path d="M77.6289 553.886C77.4546 553.886 77.2807 553.871 77.1084 553.837C76.0142 553.631 75.016 552.716 74.2276 551.19C71.8654 546.621 71.1457 536.065 75.1469 523.687C80.1716 507.76 92.4351 496.519 98.5757 498.827C99.8528 499.289 100.763 500.23 101.269 501.624C102.837 505.933 100.535 514.326 93.8037 528.837L93.7481 528.954C86.9859 543.34 82.0274 553.886 77.6289 553.886ZM96.8416 500.356C91.4971 500.356 81.1571 510.083 76.6717 524.303L76.6697 524.31C73.9037 532.863 72.6573 544.527 75.6266 550.27C76.1643 551.31 76.7708 551.922 77.3793 552.036C80.7609 552.685 86.3728 540.746 92.3188 528.1L92.3719 527.986C94.6907 522.987 101.753 507.761 99.773 502.318C99.451 501.435 98.8961 500.86 98.0743 500.563C97.7023 500.424 97.2889 500.356 96.8416 500.356Z" fill="#CDFBDD"/>
<path d="M79.9331 535.623C79.9331 565.384 73.4832 589.511 65.5267 589.511C57.5702 589.511 51.1204 565.385 51.1204 535.623C51.1204 505.862 57.5702 481.735 65.5267 481.735C73.4832 481.735 79.9331 505.862 79.9331 535.623Z" fill="#96E6B3"/>
<path d="M65.5267 579.306C65.0794 579.306 64.7166 578.897 64.7166 578.392V492.856C64.7166 492.352 65.0794 491.942 65.5267 491.942C65.974 491.942 66.3363 492.352 66.3363 492.856V578.392C66.3358 578.897 65.974 579.306 65.5267 579.306Z" fill="#CDFBDD"/>
<path d="M103.503 557.492C88.5885 575.97 79.2826 591.592 73.5014 589.832C67.9718 588.275 64.6509 568.751 75.6609 546.297C86.4749 523.596 110.731 511.523 120.03 517.388C129.577 523.171 118.136 539.145 103.503 557.492Z" fill="#96E6B3"/>
<path d="M75.8378 582.507C75.7464 582.507 75.6544 582.489 75.5639 582.452C75.1429 582.282 74.9241 581.758 75.0762 581.284C82.0967 559.282 94.9757 539.111 112.32 522.951C112.665 522.63 113.176 522.684 113.46 523.073C113.745 523.462 113.696 524.037 113.351 524.36C96.2301 540.311 83.5214 560.209 76.599 581.902C76.4807 582.276 76.1694 582.507 75.8378 582.507Z" fill="#CDFBDD"/>
<path d="M52.9185 555.207C62.8157 573.595 62.4766 590.615 57.7238 592.638C52.826 594.759 43.6955 582.089 31.9228 565.783C20.3037 549.507 12.0193 534.724 18.7552 530.517C25.3441 526.285 43.1441 536.718 52.9185 555.207Z" fill="#96E6B3"/>
<path d="M55.1332 586.666C54.8254 586.666 54.5313 586.467 54.3953 586.131C47.1641 568.15 36.8065 551.596 23.609 536.926C23.2906 536.572 23.2871 535.993 23.6009 535.634C23.9143 535.275 24.4273 535.27 24.7462 535.625C38.0856 550.452 48.5564 567.191 55.8696 585.376C56.0545 585.836 55.8741 586.377 55.4673 586.585C55.3591 586.641 55.2454 586.666 55.1332 586.666Z" fill="#CDFBDD"/>
<path d="M81.988 646.137H48.4852C44.8231 646.137 41.6699 643.221 40.9512 639.169L31.5806 586.313C31.1051 583.631 32.9235 581.129 35.3479 581.129H95.1258C97.5502 581.129 99.3676 583.631 98.8931 586.313L89.522 639.169C88.8033 643.221 85.6506 646.137 81.988 646.137Z" fill="#F0F2F7"/>
<path d="M517.65 202.745C517.65 210.358 512.18 216.529 505.431 216.529C498.682 216.529 493.212 210.358 493.212 202.745C493.212 195.132 498.682 188.961 505.431 188.961C512.179 188.961 517.65 195.132 517.65 202.745Z" fill="#FFBE55"/>
<path d="M505.431 226.397C493.87 226.397 484.465 215.787 484.465 202.745C484.465 189.703 493.87 179.093 505.431 179.093C516.992 179.093 526.398 189.703 526.398 202.745C526.398 215.787 516.992 226.397 505.431 226.397ZM505.431 179.899C494.264 179.899 485.179 190.148 485.179 202.745C485.179 215.342 494.265 225.591 505.431 225.591C516.598 225.591 525.684 215.342 525.684 202.745C525.684 190.148 516.598 179.899 505.431 179.899Z" fill="white"/>
<path d="M505.431 230.695C491.771 230.695 480.656 218.156 480.656 202.745C480.656 187.334 491.77 174.795 505.431 174.795C519.093 174.795 530.206 187.334 530.206 202.745C530.206 218.156 519.092 230.695 505.431 230.695ZM505.431 175.601C492.164 175.601 481.371 187.778 481.371 202.745C481.371 217.711 492.164 229.889 505.431 229.889C518.699 229.889 529.492 217.712 529.492 202.745C529.492 187.779 518.699 175.601 505.431 175.601Z" fill="white"/>
<path d="M409.514 185.073H378.185V220.417H409.514V185.073Z" fill="#FFBE55"/>
<path d="M400.72 227.973H368.655V191.801H400.72V227.973ZM369.39 227.144H399.985V192.63H369.39V227.144Z" fill="#FFBE55"/>
<path d="M393.85 179.826H371.887V204.604H393.85V179.826Z" fill="#4A7856"/>
<path d="M613.39 230.594V187.989L641.199 209.291L613.39 230.594Z" fill="#96E6B3"/>
<path d="M617.738 216.623V174.018L645.546 195.319L617.738 216.623Z" fill="white"/>
<path d="M617.723 234.781C610.237 234.781 603.634 228.785 602.023 220.525C600.116 210.75 605.614 201.046 614.279 198.895C615.423 198.61 616.592 198.467 617.753 198.467C625.239 198.467 631.841 204.462 633.453 212.722C634.377 217.458 633.611 222.316 631.296 226.401C628.981 230.485 625.395 233.31 621.197 234.352C620.052 234.636 618.884 234.781 617.723 234.781ZM617.753 199.311C616.646 199.311 615.531 199.448 614.44 199.719C606.178 201.771 600.935 211.022 602.754 220.344C604.29 228.22 610.585 233.937 617.723 233.937C618.829 233.937 619.944 233.798 621.036 233.528C625.038 232.533 628.459 229.841 630.666 225.947C632.873 222.051 633.604 217.42 632.722 212.904C631.185 205.027 624.89 199.311 617.753 199.311Z" fill="white"/>
<path d="M740.595 198.701L731.208 209.277L740.595 219.854L749.982 209.277L740.595 198.701Z" fill="#FFBE55"/>
<path d="M740.614 229.439L722.755 209.292L740.614 189.145L758.473 209.292L740.614 229.439ZM723.469 209.292L740.614 228.633L757.759 209.292L740.614 189.951L723.469 209.292Z" fill="#96E6B3"/>
</svg>
