<svg width="1035" height="792" viewBox="0 0 1035 792" fill="none" xmlns="http://www.w3.org/2000/svg">
<path opacity="0.11" d="M511.548 792C788.422 792 1012.87 763.014 1012.87 727.258C1012.87 691.502 788.422 662.517 511.548 662.517C234.675 662.517 10.2241 691.502 10.2241 727.258C10.2241 763.014 234.675 792 511.548 792Z" fill="#4DF788"/>
<path d="M362.967 695.248L644.991 745.853V120.594L362.967 69.9891V695.248Z" fill="#96E6B3"/>
<path opacity="0.13" d="M362.967 695.248L644.991 745.853V120.594L362.967 69.9891V695.248Z" fill="#FFBE55"/>
<path d="M362.967 695.248L80.9442 745.853V120.594L362.967 69.9891V695.248Z" fill="#96E6B3"/>
<path d="M927.014 695.248L644.991 745.853V120.594L927.014 69.9891V695.248Z" fill="#96E6B3"/>
<path d="M362.967 310.216L80.9442 354.145V323.998L362.967 280.068V310.216Z" fill="#F7F7F7"/>
<path d="M362.967 502.301L80.9442 546.232V516.083L362.967 472.154V502.301Z" fill="#F7F7F7"/>
<path d="M927.014 310.216L644.991 354.145V323.998L927.014 280.068V310.216Z" fill="#F7F7F7"/>
<path d="M493.195 485.815C526.215 485.815 552.983 453.736 552.983 414.164C552.983 374.592 526.215 342.512 493.195 342.512C460.175 342.512 433.407 374.592 433.407 414.164C433.407 453.736 460.175 485.815 493.195 485.815Z" fill="#4A7856"/>
<path d="M927.014 502.301L644.991 546.232V516.083L927.014 472.154V502.301Z" fill="#F7F7F7"/>
<path d="M362.967 310.216L644.991 354.145V323.998L362.967 280.068V310.216Z" fill="#F7F7F7"/>
<path d="M362.967 502.301L644.991 546.232V516.083L362.967 472.154V502.301Z" fill="#F7F7F7"/>
<path d="M172.966 729.342L149.518 733.432V108.29L172.966 104.083V729.342Z" fill="#F7F7F7"/>
<path d="M305.945 492.577L282.497 496.667V84.5089L305.945 80.3015V492.577Z" fill="#F7F7F7"/>
<path d="M488.1 718.624L511.548 722.715V97.3361L488.1 93.1287V718.624Z" fill="#F7F7F7"/>
<path d="M668.439 741.95L644.991 746.041V120.899L668.439 116.691V741.95Z" fill="#F7F7F7"/>
<path d="M781.103 511.699L757.655 515.789V100.952L781.103 96.7443V511.699Z" fill="#F7F7F7"/>
<path d="M897.743 699.886L874.295 703.976V485.622L897.743 481.414V699.886Z" fill="#F7F7F7"/>
<path d="M826.263 713.094L802.815 717.185V498.829L826.263 494.622V713.094Z" fill="#F7F7F7"/>
<path d="M745.257 727.665L721.809 731.755V513.4L745.257 509.193V727.665Z" fill="#F7F7F7"/>
<path d="M493.195 310.765C445.545 310.765 406.916 357.058 406.916 414.164C406.916 471.269 445.545 517.561 493.195 517.561C540.846 517.561 579.474 471.269 579.474 414.163C579.474 357.057 540.846 310.765 493.195 310.765ZM493.195 485.815C460.175 485.815 433.407 453.735 433.407 414.163C433.407 374.591 460.175 342.511 493.195 342.511C526.216 342.511 552.984 374.591 552.984 414.163C552.984 453.735 526.216 485.815 493.195 485.815Z" fill="#F7F7F7"/>
<path d="M493.195 485.815C526.215 485.815 552.983 453.736 552.983 414.164C552.983 374.592 526.215 342.512 493.195 342.512C460.175 342.512 433.407 374.592 433.407 414.164C433.407 453.736 460.175 485.815 493.195 485.815Z" fill="#96E6B3"/>
<path opacity="0.86" d="M493.195 485.815C526.215 485.815 552.983 453.736 552.983 414.164C552.983 374.592 526.215 342.512 493.195 342.512C460.175 342.512 433.407 374.592 433.407 414.164C433.407 453.736 460.175 485.815 493.195 485.815Z" fill="#FFBE55"/>
<path d="M645.01 341.119L644.723 341.075L359.378 297.648L226.944 315.072L226.481 310.605L359.414 293.114L644.971 336.573L767.383 315.179V99.2059L771.374 98.4902V319.035L645.01 341.119Z" fill="#FFBE55"/>
<path d="M230.115 370.21C215.986 370.21 192.074 367.547 192.074 357.567C192.074 347.587 215.986 344.924 230.115 344.924C244.244 344.924 268.155 347.587 268.155 357.567C268.155 367.547 244.244 370.21 230.115 370.21ZM197.24 357.567C198.399 360.026 210.368 364.424 230.115 364.424C249.861 364.424 261.83 360.026 262.989 357.567C261.83 355.108 249.861 350.71 230.115 350.71C210.368 350.71 198.399 355.108 197.24 357.567Z" fill="#FFBE55"/>
<path d="M251.633 291.139C251.633 277.743 241.999 266.885 230.115 266.885C218.23 266.885 208.596 277.743 208.596 291.139C208.596 291.161 208.596 291.182 208.596 291.204C208.605 294.34 209.338 297.42 210.572 300.23L230.115 344.742L249.657 300.23C250.891 297.42 251.625 294.34 251.633 291.204C251.633 291.182 251.633 291.161 251.633 291.139ZM230.115 303.953C223.836 303.953 218.746 298.216 218.746 291.139C218.746 284.062 223.836 278.324 230.115 278.324C236.393 278.324 241.484 284.062 241.484 291.139C241.484 298.216 236.393 303.953 230.115 303.953Z" fill="#FFBE55"/>
<path d="M241.63 349.478C241.63 349.478 231.027 340.794 236.666 326.256C239.889 317.948 242.891 331.155 248.434 333.712C248.434 333.712 250.572 335.323 248.929 332.727C247.287 330.132 245.944 329.954 246.116 328.879C246.287 327.804 246.68 327.637 248.169 328.42C250.393 329.59 250.949 330.156 252.525 333.085C254.1 336.015 259.788 345.434 255.628 348.76C251.468 352.087 249.018 358.619 241.63 349.478Z" fill="#FCD2B1"/>
<path d="M357.831 307.44H334.262L337.032 277.554H355.062L357.831 307.44Z" fill="#FCD2B1"/>
<path d="M346.046 289.521C360.104 289.521 371.501 276.676 371.501 260.83C371.501 244.985 360.104 232.139 346.046 232.139C331.988 232.139 320.592 244.985 320.592 260.83C320.592 276.676 331.988 289.521 346.046 289.521Z" fill="#FAB9AF"/>
<path d="M295.904 493.928L314.574 727.172H328.244C328.244 727.172 348.277 567.33 348.277 539.621C348.277 532.182 351.518 533.239 351.813 535.37C352.122 537.613 379.86 726.906 379.86 726.906L394.944 726.375L396.189 493.928C396.189 493.928 377.353 492.804 349.841 492.804C322.33 492.804 295.904 493.928 295.904 493.928Z" fill="#4A7856"/>
<path d="M336.068 297.614C336.068 297.614 309.279 301.463 298.672 322.184C288.066 342.905 285.678 378.409 282.497 383.192C279.315 387.973 291.167 415.766 299.573 403.34C307.978 390.914 312.814 356.453 314.935 350.875C317.056 345.295 336.068 297.614 336.068 297.614Z" fill="#FFBE55"/>
<path d="M366.675 301.384C366.675 301.384 387.832 309.727 392.81 326.614C397.789 343.5 419.06 385.604 418.293 399.019C417.525 412.434 391.653 475.735 391.653 475.735L384.601 471.764C384.601 471.764 394.68 404.952 394.6 397.892C394.521 390.832 371.63 372.48 376.883 349.307C377.199 347.915 345.535 319.533 366.675 301.384Z" fill="#FFBE55"/>
<path d="M346.046 289.521C346.046 289.521 331.669 293.095 323.42 284.062C315.171 275.03 316.349 263.872 310.693 262.278C305.037 260.684 306.215 250.855 310.693 248.199C315.171 245.542 321.77 244.479 323.42 235.447C325.07 226.415 347.657 221.899 352.862 227.212C358.067 232.525 364.43 231.728 368.437 237.838C372.443 243.948 372.048 261.388 374.329 266.529C377.157 272.904 364.484 285.721 358.827 287.58C353.171 289.44 346.046 289.521 346.046 289.521Z" fill="#4A7856"/>
<path d="M396.19 493.928C396.19 493.928 367.725 498.427 346.047 498.427C324.369 498.427 295.904 493.928 295.904 493.928L308.468 335.979C309.525 320.499 324.142 297.478 337.916 297.478H356.908C370.871 297.478 385.217 320.818 386.029 336.529L396.19 493.928Z" fill="#FFBE55"/>
<path d="M327.312 742.045H286.532C285.785 742.045 285.453 740.987 286.035 740.457C297.16 730.337 311.025 724.818 325.321 724.818H327.312C327.749 724.818 328.104 725.217 328.104 725.711V741.152C328.104 741.646 327.749 742.045 327.312 742.045Z" fill="#4A7856"/>
<path d="M395.397 746.831H354.617C353.87 746.831 353.538 745.772 354.12 745.243C365.245 735.122 379.11 729.603 393.406 729.603H395.397C395.834 729.603 396.189 730.003 396.189 730.496V745.937C396.19 746.431 395.834 746.831 395.397 746.831Z" fill="#4A7856"/>
<path d="M247.715 354.145C247.715 354.145 268.155 414.163 295.903 406.362L290.572 374.765C290.572 374.765 264.419 356.92 256.946 346.967L247.715 354.145Z" fill="#FFBE55"/>
</svg>
